# xmcd CD database file
#
# Track frame offsets:
#        150
#        16557
#        31317
#        46653
#        65509
#        77949
#        93943
#        107164
#        124354
#        140445
#        154157
#        170319
#
# Disc length: 2460 seconds
#
# Revision: 0
# Processed by: cddbd v1.5.2PL0 Copyright (c) Steve Scherf et al.
# Submitted via: CUERipper 2.1.5
#
DISCID=91099a0c
DTITLE=091 - Mas de cien lobos
DYEAR=1986
DGENRE=Rock
TTITLE0=Cuando pierdo el equilibrio
TTITLE1=Buen dia para olvidar
TTITLE2=Escupir contra el viento
TTITLE3=Escenas de guerra
TTITLE4=Me siento mal
TTITLE5=En la calle
TTITLE6=Perderme en la jungla
TTITLE7=Blues de medianoche
TTITLE8=En tu locura
TTITLE9=Mas de cien lobos
TTITLE10=Por ti en la oscuridad
TTITLE11=Solo es un juego
EXTD=
EXTT0=
EXTT1=
EXTT2=
EXTT3=
EXTT4=
EXTT5=
EXTT6=
EXTT7=
EXTT8=
EXTT9=
EXTT10=
EXTT11=
PLAYORDER=
